<svg width="1170" height="292" viewBox="0 0 1170 292" fill="none" xmlns="http://www.w3.org/2000/svg">
<rect width="1170" height="292" fill="black"/>
<path d="M964.203 146.456C963.675 149.816 960.795 152.696 955.659 152.696C952.011 152.696 948.027 150.824 948.027 145.832C948.027 141.656 951.675 138.632 953.787 137.576L964.203 146.456ZM971.931 153.128L973.851 150.824L967.371 145.016V135.848H964.443V142.568H964.347L954.027 133.64C952.443 132.248 950.811 130.472 950.811 128.264C950.811 125.528 952.731 123.56 956.043 123.56C959.883 123.56 961.371 125.864 961.947 128.504L964.971 127.688C964.059 123.224 960.699 120.68 956.091 120.68C950.763 120.68 947.787 124.376 947.787 127.976C947.787 130.712 948.891 132.728 950.523 134.456L951.627 135.608C949.275 137.048 944.907 140.504 944.907 146.264C944.907 153.176 950.427 155.72 955.611 155.72C962.331 155.72 965.787 151.928 966.747 148.616L971.931 153.128ZM987.617 155H990.737V138.536C990.737 134.936 992.369 131.72 996.593 131.72C1000.38 131.72 1002.06 133.976 1002.06 138.872V155H1005.18V138.536C1005.18 134.12 1007.44 131.72 1011.14 131.72C1014.83 131.72 1016.61 133.976 1016.61 138.872V155H1019.73V137.72C1019.73 132.152 1016.42 128.84 1011.33 128.84C1007.78 128.84 1004.99 130.904 1003.94 132.68H1003.84C1002.83 130.856 1000.82 128.84 997.121 128.84C994.385 128.84 991.745 130.136 990.497 132.008H990.401V129.56H987.617V155ZM1035.86 152.84C1031.35 152.84 1027.56 149.288 1027.56 142.28C1027.56 135.272 1031.25 131.72 1035.86 131.72C1040.37 131.72 1043.92 135.416 1043.92 142.28C1043.92 149.144 1040.23 152.84 1035.86 152.84ZM1035.86 155.72C1042.15 155.72 1047.04 150.968 1047.04 142.28C1047.04 133.592 1041.81 128.84 1035.86 128.84C1029.76 128.84 1024.44 133.592 1024.44 142.28C1024.44 150.968 1029.48 155.72 1035.86 155.72ZM1052.01 155H1055.13V138.44C1055.13 134.264 1057.24 132.392 1059.93 132.392C1061.42 132.392 1061.94 132.776 1061.94 132.776L1062.57 129.608C1062.57 129.608 1061.85 129.128 1060.41 129.128C1058.58 129.128 1056.28 130.04 1055.13 132.296H1055.03V129.56H1052.01V155ZM1084.65 147.512C1083.88 149.144 1082.25 152.84 1076.54 152.84C1070.63 152.84 1068.04 147.896 1068.04 143.192H1087.82V142.28C1087.82 133.688 1083.16 128.84 1076.44 128.84C1069.72 128.84 1064.87 134.024 1064.87 142.28C1064.87 150.536 1069.87 155.72 1076.63 155.72C1082.25 155.72 1085.8 152.36 1087.29 148.952L1084.65 147.512ZM1068.14 140.552C1068.14 137.384 1070.2 131.72 1076.44 131.72C1082.68 131.72 1084.6 136.712 1084.6 140.552H1068.14Z" fill="white"/>
<path opacity="0.6" d="M143.106 252H145.778V260.8H143.106V262H149.826V260.8H147.138V252H149.826V250.8H143.106V252ZM152.304 262H153.52V256.512C153.52 255.424 153.808 254.48 154.624 254.48C155.424 254.48 155.6 255.216 155.6 256.624V262H156.768V256.512C156.768 255.232 157.072 254.48 157.872 254.48C158.656 254.48 158.816 255.216 158.816 256.624V262H160.032V256.224C160.032 254.416 159.584 253.28 158.112 253.28C157.184 253.28 156.64 253.936 156.432 254.528H156.4C156.224 253.904 155.808 253.28 154.88 253.28C154.256 253.28 153.728 253.728 153.52 254.336H153.488V253.52H152.304V262ZM167.438 262H168.622V255.952C168.622 254.288 167.262 253.28 165.406 253.28C163.566 253.28 162.43 254.352 162.174 255.776L163.39 256.128C163.598 255.184 164.126 254.448 165.454 254.448C166.574 254.448 167.23 255.008 167.23 255.68C167.23 256.512 166.318 256.784 164.798 257.168C162.734 257.696 161.918 258.416 161.918 259.824C161.918 261.12 162.83 262.24 164.814 262.24C166.334 262.24 167.166 261.488 167.406 261.072H167.438V262ZM165.102 258.176C166.846 257.696 167.166 257.408 167.278 257.168H167.31V259.28C167.31 260.224 166.526 261.072 164.91 261.072C163.646 261.072 163.23 260.512 163.23 259.744C163.23 259.04 163.582 258.592 165.102 258.176ZM171.42 263.536C171.868 264.848 172.972 265.84 174.78 265.84C176.86 265.84 178.204 264.592 178.204 262.128V253.52H176.908V254.336H176.876C176.364 253.696 175.564 253.28 174.492 253.28C172.428 253.28 170.748 254.992 170.748 257.76C170.748 260.528 172.3 262.24 174.508 262.24C175.756 262.24 176.476 261.712 176.86 261.264H176.892V262.4C176.892 263.824 176.124 264.672 174.748 264.672C173.388 264.672 172.876 263.824 172.556 262.944L171.42 263.536ZM176.892 259.216C176.892 260.176 175.98 261.056 174.7 261.056C173.004 261.056 172.092 259.824 172.092 257.76C172.092 255.696 173.02 254.464 174.7 254.464C176.108 254.464 176.892 255.568 176.892 256.528V259.216ZM186.667 259.376C186.363 259.936 185.867 261.056 184.155 261.056C182.395 261.056 181.579 259.648 181.563 258.144H187.963V257.76C187.963 254.928 186.347 253.28 184.123 253.28C181.883 253.28 180.219 255.008 180.219 257.76C180.219 260.512 181.915 262.24 184.187 262.24C186.043 262.24 187.179 261.184 187.739 260.08L186.667 259.376ZM181.595 257.104C181.611 256.064 182.299 254.464 184.123 254.464C185.963 254.464 186.603 255.872 186.635 257.104H181.595ZM199.639 263.536C200.087 264.848 201.191 265.84 202.999 265.84C205.079 265.84 206.423 264.592 206.423 262.128V253.52H205.127V254.336H205.095C204.583 253.696 203.783 253.28 202.711 253.28C200.647 253.28 198.967 254.992 198.967 257.76C198.967 260.528 200.519 262.24 202.727 262.24C203.975 262.24 204.695 261.712 205.079 261.264H205.111V262.4C205.111 263.824 204.343 264.672 202.967 264.672C201.607 264.672 201.095 263.824 200.775 262.944L199.639 263.536ZM205.111 259.216C205.111 260.176 204.199 261.056 202.919 261.056C201.223 261.056 200.311 259.824 200.311 257.76C200.311 255.696 201.239 254.464 202.919 254.464C204.327 254.464 205.111 255.568 205.111 256.528V259.216ZM210.053 262H211.365V257.28C211.365 255.696 212.309 254.704 213.541 254.704C214.421 254.704 214.949 255.152 215.189 255.952L216.469 255.408C216.021 254.064 215.029 253.376 213.749 253.376C212.661 253.376 211.701 254.032 211.333 254.752H211.301V253.52H210.053V262ZM221.364 251.808H222.868V250.32H221.364V251.808ZM218.596 254.64H221.46V260.88H218.516V262H225.556V260.88H222.756V253.52H218.596V254.64ZM233.33 259.184C233.33 260.16 232.434 261.056 231.154 261.056C229.458 261.056 228.578 259.824 228.578 257.76C228.578 255.696 229.458 254.464 231.154 254.464C232.562 254.464 233.33 255.584 233.33 256.56V259.184ZM233.458 262H234.642V250.32H233.33V254.336H233.298C232.866 253.824 232.098 253.28 230.946 253.28C228.898 253.28 227.234 254.992 227.234 257.76C227.234 260.48 228.706 262.24 230.946 262.24C232.21 262.24 233.074 261.6 233.426 261.184H233.458V262ZM236.944 259.12C237.136 260.8 238.272 262.24 240.912 262.24C243.472 262.24 244.384 260.992 244.336 259.76C244.288 258.528 244.144 257.824 241.2 257.072C238.56 256.4 238.528 256.144 238.528 255.504C238.528 255.024 239.104 254.4 240.448 254.4C241.792 254.4 242.48 255.056 242.816 256.032L243.984 255.648C243.616 254.336 242.528 253.28 240.432 253.28C238.336 253.28 237.28 254.448 237.248 255.536C237.216 256.672 237.696 257.344 240.416 258.032C242.88 258.656 243.12 258.96 243.12 259.76C243.12 260.528 242.512 261.104 240.896 261.104C239.232 261.104 238.384 260.352 238.192 258.88L236.944 259.12Z" fill="white"/>
<path d="M73.5 42C73.5 40.067 75.067 38.5 77 38.5H309C310.933 38.5 312.5 40.067 312.5 42V227.5H73.5V42Z" stroke="white"/>
<line x1="73" y1="49.5" x2="313" y2="49.5" stroke="white"/>
<rect opacity="0.3" x="92" y="67" width="64" height="93" fill="#A4A4A4"/>
<rect opacity="0.3" x="161" y="67" width="64" height="64" fill="#A4A4A4"/>
<rect opacity="0.3" x="230" y="67" width="64" height="81" fill="#A4A4A4"/>
<rect opacity="0.3" x="92" y="165" width="64" height="43" fill="#A4A4A4"/>
<rect opacity="0.3" x="161" y="136" width="64" height="72" fill="#A4A4A4"/>
<rect opacity="0.3" x="230" y="153" width="64" height="55" fill="#A4A4A4"/>
<circle cx="82" cy="44" r="2" fill="white"/>
<circle cx="89" cy="44" r="2" fill="white"/>
<circle cx="96" cy="44" r="2" fill="white"/>
<path opacity="0.6" d="M437.284 262H443.908V260.784H438.66V256.832H443.46V255.648H438.66V252.016H443.908V250.8H437.284V262ZM451.986 259.184C451.986 260.16 451.09 261.056 449.81 261.056C448.114 261.056 447.234 259.824 447.234 257.76C447.234 255.696 448.114 254.464 449.81 254.464C451.218 254.464 451.986 255.584 451.986 256.56V259.184ZM452.114 262H453.298V250.32H451.986V254.336H451.954C451.522 253.824 450.754 253.28 449.602 253.28C447.554 253.28 445.89 254.992 445.89 257.76C445.89 260.48 447.362 262.24 449.602 262.24C450.866 262.24 451.73 261.6 452.082 261.184H452.114V262ZM458.832 251.808H460.336V250.32H458.832V251.808ZM456.064 254.64H458.928V260.88H455.984V262H463.024V260.88H460.224V253.52H456.064V254.64ZM467.615 259.536C467.615 261.12 468.255 262 469.903 262H471.407V260.736H469.967C469.103 260.736 468.927 260.32 468.927 259.376V254.688H471.967V253.52H468.911V251.44H467.631V253.52H464.911V254.688H467.615V259.536ZM478.029 261.056C476.605 261.056 475.485 259.952 475.485 257.76C475.485 255.584 476.589 254.464 478.029 254.464C479.437 254.464 480.509 255.616 480.509 257.76C480.509 259.904 479.405 261.056 478.029 261.056ZM478.029 262.24C480.157 262.24 481.853 260.656 481.853 257.76C481.853 254.864 480.045 253.28 478.029 253.28C475.981 253.28 474.141 254.864 474.141 257.76C474.141 260.656 475.869 262.24 478.029 262.24ZM485.147 262H486.459V257.28C486.459 255.696 487.403 254.704 488.635 254.704C489.515 254.704 490.043 255.152 490.283 255.952L491.563 255.408C491.115 254.064 490.123 253.376 488.843 253.376C487.755 253.376 486.795 254.032 486.427 254.752H486.395V253.52H485.147V262ZM496.457 251.808H497.961V250.32H496.457V251.808ZM493.689 254.64H496.553V260.88H493.609V262H500.649V260.88H497.849V253.52H493.689V254.64ZM508.376 262H509.56V255.952C509.56 254.288 508.2 253.28 506.344 253.28C504.504 253.28 503.368 254.352 503.112 255.776L504.328 256.128C504.536 255.184 505.064 254.448 506.392 254.448C507.512 254.448 508.168 255.008 508.168 255.68C508.168 256.512 507.256 256.784 505.736 257.168C503.672 257.696 502.856 258.416 502.856 259.824C502.856 261.12 503.768 262.24 505.752 262.24C507.272 262.24 508.104 261.488 508.344 261.072H508.376V262ZM506.04 258.176C507.784 257.696 508.104 257.408 508.216 257.168H508.248V259.28C508.248 260.224 507.464 261.072 505.848 261.072C504.584 261.072 504.168 260.512 504.168 259.744C504.168 259.04 504.52 258.592 506.04 258.176ZM512.614 251.488H515.366V260.832H512.534V262H519.574V260.832H516.678V250.32H512.614V251.488Z" fill="white"/>
<path d="M358.5 42C358.5 40.067 360.067 38.5 362 38.5H594C595.933 38.5 597.5 40.067 597.5 42V227.5H358.5V42Z" stroke="white"/>
<line x1="358" y1="49.5" x2="598" y2="49.5" stroke="white"/>
<rect opacity="0.3" x="377" y="107" width="73.3333" height="19" fill="#A4A4A4"/>
<rect opacity="0.3" x="377" y="137" width="84.3333" height="4" fill="#A4A4A4"/>
<rect opacity="0.3" x="377" y="146" width="88" height="4" fill="#A4A4A4"/>
<rect opacity="0.3" x="377" y="155" width="73.3333" height="4" fill="#A4A4A4"/>
<rect opacity="0.3" x="377" y="164" width="80.6667" height="4" fill="#A4A4A4"/>
<rect opacity="0.3" x="483" y="67" width="96" height="141" fill="#A4A4A4"/>
<circle cx="367" cy="44" r="2" fill="white"/>
<circle cx="374" cy="44" r="2" fill="white"/>
<circle cx="381" cy="44" r="2" fill="white"/>
<path opacity="0.6" d="M730.934 262H732.294V257.68H734.822C737.046 257.68 738.566 256.48 738.566 254.256C738.566 252 736.982 250.8 734.79 250.8H730.934V262ZM732.294 256.464V252.016H734.71C736.006 252.016 737.19 252.64 737.19 254.256C737.19 255.792 736.038 256.464 734.742 256.464H732.294ZM741.428 262H742.74V257.28C742.74 255.696 743.684 254.704 744.916 254.704C745.796 254.704 746.324 255.152 746.564 255.952L747.844 255.408C747.396 254.064 746.404 253.376 745.124 253.376C744.036 253.376 743.076 254.032 742.708 254.752H742.676V253.52H741.428V262ZM753.123 261.056C751.699 261.056 750.579 259.952 750.579 257.76C750.579 255.584 751.683 254.464 753.123 254.464C754.531 254.464 755.603 255.616 755.603 257.76C755.603 259.904 754.499 261.056 753.123 261.056ZM753.123 262.24C755.251 262.24 756.947 260.656 756.947 257.76C756.947 254.864 755.139 253.28 753.123 253.28C751.075 253.28 749.235 254.864 749.235 257.76C749.235 260.656 750.963 262.24 753.123 262.24ZM761.793 262H763.105V254.688H766.177V253.52H763.089V252.48C763.089 251.664 763.265 251.488 763.921 251.488H765.409V250.32H763.681C762.593 250.32 761.793 250.704 761.793 252.224V253.52H759.121V254.688H761.793V262ZM771.551 251.808H773.055V250.32H771.551V251.808ZM768.783 254.64H771.647V260.88H768.703V262H775.743V260.88H772.943V253.52H768.783V254.64ZM778.301 251.488H781.053V260.832H778.221V262H785.261V260.832H782.365V250.32H778.301V251.488ZM793.292 259.376C792.988 259.936 792.492 261.056 790.78 261.056C789.02 261.056 788.204 259.648 788.188 258.144H794.588V257.76C794.588 254.928 792.972 253.28 790.748 253.28C788.508 253.28 786.844 255.008 786.844 257.76C786.844 260.512 788.54 262.24 790.812 262.24C792.668 262.24 793.804 261.184 794.364 260.08L793.292 259.376ZM788.22 257.104C788.236 256.064 788.924 254.464 790.748 254.464C792.588 254.464 793.228 255.872 793.26 257.104H788.22Z" fill="white"/>
<path d="M642.5 42C642.5 40.067 644.067 38.5 646 38.5H878C879.933 38.5 881.5 40.067 881.5 42V227.5H642.5V42Z" stroke="white"/>
<line x1="642" y1="49.5" x2="882" y2="49.5" stroke="white"/>
<rect opacity="0.3" x="706" y="139" width="112" height="19" fill="#A4A4A4"/>
<rect opacity="0.3" x="697" y="169" width="129" height="4" fill="#A4A4A4"/>
<rect opacity="0.3" x="694" y="178" width="135" height="4" fill="#A4A4A4"/>
<rect opacity="0.3" x="706" y="187" width="112" height="4" fill="#A4A4A4"/>
<rect opacity="0.3" x="700" y="196" width="124" height="4" fill="#A4A4A4"/>
<circle cx="651" cy="44" r="2" fill="white"/>
<circle cx="658" cy="44" r="2" fill="white"/>
<circle cx="665" cy="44" r="2" fill="white"/>
<path fill-rule="evenodd" clip-rule="evenodd" d="M762 123C775.255 123 786 112.255 786 99C786 85.7452 775.255 75 762 75C748.745 75 738 85.7452 738 99C738 112.255 748.745 123 762 123Z" fill="#313131"/>
<mask id="mask0" mask-type="alpha" maskUnits="userSpaceOnUse" x="738" y="75" width="48" height="48">
<path fill-rule="evenodd" clip-rule="evenodd" d="M762 123C775.255 123 786 112.255 786 99C786 85.7452 775.255 75 762 75C748.745 75 738 85.7452 738 99C738 112.255 748.745 123 762 123Z" fill="white"/>
</mask>
<g mask="url(#mask0)">
<path fill-rule="evenodd" clip-rule="evenodd" d="M762 100.886C767.113 100.886 771.257 96.7413 771.257 91.6287C771.257 86.5161 767.113 82.3716 762 82.3716C756.888 82.3716 752.743 86.5161 752.743 91.6287C752.743 96.7413 756.888 100.886 762 100.886Z" fill="#4A4A4A"/>
<path fill-rule="evenodd" clip-rule="evenodd" d="M762 138.429C772.414 138.429 780.857 129.986 780.857 119.571C780.857 109.157 772.414 100.714 762 100.714C751.585 100.714 743.143 109.157 743.143 119.571C743.143 129.986 751.585 138.429 762 138.429Z" fill="#4A4A4A"/>
</g>
</svg>
