<svg xmlns="http://www.w3.org/2000/svg" viewBox="0 0 24 24"><path d="M7.5 21h-3A1.5 1.5 0 0 1 3 19.5v-3a.5.5 0 0 0-1 0v3A2.5 2.5 0 0 0 4.5 22h3a.5.5 0 0 0 0-1m-5-13a.5.5 0 0 0 .5-.5v-3A1.5 1.5 0 0 1 4.5 3h3a.5.5 0 0 0 0-1h-3A2.5 2.5 0 0 0 2 4.5v3a.5.5 0 0 0 .5.5m17-6h-3a.5.5 0 0 0 0 1h3A1.5 1.5 0 0 1 21 4.5v3a.5.5 0 0 0 1 0v-3A2.5 2.5 0 0 0 19.5 2m2 14a.5.5 0 0 0-.5.5v3a1.5 1.5 0 0 1-1.5 1.5h-3a.5.5 0 0 0 0 1h3a2.5 2.5 0 0 0 2.5-2.5v-3a.5.5 0 0 0-.5-.5M12 8a4 4 0 1 0 0 8 4 4 0 0 0 0-8m0 7a3 3 0 1 1 0-6 3 3 0 0 1 0 6"/></svg>